<svg xmlns="http://www.w3.org/2000/svg" width="2386" height="100%" viewBox="0 0 2386 97"><g fill="none" fill-rule="evenodd"><path fill="#F5F9FD" fill-rule="nonzero" d="M0,0 C192.039062,0 297.895335,13.4568413 549.081232,39.4647401 C834.728027,69.0407354 878.862222,68.2721955 1035.53295,68.2721955 C1513.43225,68.2721955 2091.26562,2.84217094e-14 2386,0 C2386,0 1590.66667,0 0,0 Z"/><path stroke="#B1D8FF" stroke-linecap="round" stroke-linejoin="round" d="M0,52.8541905 C62.4677243,47.8373826 132.912427,45.3752057 219.070809,44.6723461 C441.693676,42.8562207 638.175273,56.8544366 865.719561,54.7919981 C1082.08141,52.8308602 1240.72578,34.2326606 1470.137,37.3517302 C1765.12041,41.3623838 1827.48047,61.8541905 2066.24219,61.8541905 C2195.41406,61.8541905 2351.86138,55.0002332 2384,52.8541905"/></g></svg>